<svg xmlns="http://www.w3.org/2000/svg" width="160" height="160" viewBox="0 0 100 100" role="img" aria-label="Nova, ready" data-shape="nova"><defs><linearGradient id="_R_0_body" x1="0" y1="0" x2=".8" y2="1"><stop stop-color="white" stop-opacity=".26"></stop><stop offset=".52" stop-color="white" stop-opacity="0"></stop><stop offset="1" stop-color="black" stop-opacity=".13"></stop></linearGradient></defs><g><g fill="#6757d9"><path d="M48 29V17h4v12Z"></path><circle cx="50" cy="13" r="5"></circle><rect x="9" y="45" width="12" height="22" rx="6"></rect><rect x="79" y="45" width="12" height="22" rx="6"></rect></g><path d="M38 27H62Q82 27 82 48V66Q82 85 61 85H39Q18 85 18 66V48Q18 27 38 27Z" fill="#6757d9"></path><path d="M38 27H62Q82 27 82 48V66Q82 85 61 85H39Q18 85 18 66V48Q18 27 38 27Z" fill="url(#_R_0_body)" stroke="black" stroke-opacity=".09"></path><path d="M30 40q9-10 22-9" stroke="white" stroke-opacity=".33" stroke-width="2.8" fill="none" stroke-linecap="round"></path><g fill="#24242b"><ellipse cx="40" cy="54" rx="3.3" ry="4.7"></ellipse><ellipse cx="61" cy="54" rx="3.3" ry="4.7"></ellipse></g><path d="M45 65q6 5 12-1" fill="none" stroke="#24242b" stroke-width="2.1" stroke-linecap="round"></path><ellipse cx="30" cy="64" rx="4" ry="2" fill="white" opacity=".17"></ellipse><ellipse cx="71" cy="64" rx="4" ry="2" fill="white" opacity=".17"></ellipse></g></svg>