<svg xmlns="http://www.w3.org/2000/svg" width="160" height="160" viewBox="0 0 100 100" role="img" aria-label="Orbit, ready" data-shape="orbit"><defs><linearGradient id="_R_0_body" x1="0" y1="0" x2=".8" y2="1"><stop stop-color="white" stop-opacity=".26"></stop><stop offset=".52" stop-color="white" stop-opacity="0"></stop><stop offset="1" stop-color="black" stop-opacity=".13"></stop></linearGradient></defs><g><ellipse cx="50" cy="56" rx="43" ry="14" transform="rotate(-24 50 56)" fill="none" stroke="#d98f5a" stroke-width="6" opacity=".75"></ellipse><path d="M50 23A32 32 0 1 1 49.99 23Z" fill="#d98f5a"></path><path d="M50 23A32 32 0 1 1 49.99 23Z" fill="url(#_R_0_body)" stroke="black" stroke-opacity=".09"></path><path d="M30 40q9-10 22-9" stroke="white" stroke-opacity=".33" stroke-width="2.8" fill="none" stroke-linecap="round"></path><g fill="#24242b"><ellipse cx="40" cy="54" rx="3.3" ry="4.7"></ellipse><ellipse cx="61" cy="54" rx="3.3" ry="4.7"></ellipse></g><path d="M45 65q6 5 12-1" fill="none" stroke="#24242b" stroke-width="2.1" stroke-linecap="round"></path><ellipse cx="30" cy="64" rx="4" ry="2" fill="white" opacity=".17"></ellipse><ellipse cx="71" cy="64" rx="4" ry="2" fill="white" opacity=".17"></ellipse><path d="M13 69C28 78 64 67 85 45" fill="none" stroke="#d98f5a" stroke-width="5" stroke-linecap="round"></path></g></svg>